<svg width="12" height="20" viewBox="0 0 12 20" fill="none" xmlns="http://www.w3.org/2000/svg">
<path fill-rule="evenodd" clip-rule="evenodd" d="M11.5419 8.9195C11.8352 9.2012 12 9.58322 12 9.98154C12 10.3799 11.8352 10.7619 11.5419 11.0436L2.69022 19.5414C2.54587 19.6849 2.37322 19.7993 2.18231 19.878C1.99141 19.9568 1.78609 19.9982 1.57832 19.9999C1.37056 20.0017 1.16452 19.9637 0.972218 19.8881C0.779919 19.8126 0.605214 19.7011 0.458297 19.56C0.311381 19.419 0.195195 19.2513 0.116519 19.0666C0.0378436 18.882 -0.00174633 18.6842 5.90794e-05 18.4848C0.00186449 18.2853 0.0450295 18.0882 0.127035 17.9049C0.209041 17.7217 0.328245 17.5559 0.477692 17.4173L8.22309 9.98154L0.477692 2.54576C0.192664 2.26244 0.034949 1.88299 0.0385141 1.48913C0.0420792 1.09526 0.206639 0.718494 0.496752 0.43998C0.786865 0.161463 1.17932 0.003479 1.58958 5.53131e-05C1.99985 -0.00336647 2.3951 0.148045 2.69022 0.421679L11.5419 8.9195Z" fill="#1CAF4B"/>
</svg>
