<svg width="12" height="20" viewBox="0 0 12 20" fill="none" xmlns="http://www.w3.org/2000/svg">
<path fill-rule="evenodd" clip-rule="evenodd" d="M0.458131 11.0805C0.16479 10.7988 0 10.4168 0 10.0185C0 9.62014 0.16479 9.23812 0.458131 8.95642L9.30978 0.458598C9.45413 0.315124 9.62678 0.200685 9.81769 0.121957C10.0086 0.0432295 10.2139 0.00178995 10.4217 5.67168e-05C10.6294 -0.00167652 10.8355 0.0363315 11.0278 0.111862C11.2201 0.187393 11.3948 0.298935 11.5417 0.439978C11.6886 0.581022 11.8048 0.748742 11.8835 0.933354C11.9622 1.11797 12.0017 1.31577 11.9999 1.51523C11.9981 1.71469 11.955 1.9118 11.873 2.09508C11.791 2.27835 11.6718 2.44411 11.5223 2.58268L3.77691 10.0185L11.5223 17.4542C11.8073 17.7376 11.9651 18.117 11.9615 18.5109C11.9579 18.9047 11.7934 19.2815 11.5032 19.56C11.2131 19.8385 10.8207 19.9965 10.4104 19.9999C10.0001 20.0034 9.6049 19.852 9.30978 19.5783L0.458131 11.0805Z" fill="#1CAF4B"/>
</svg>
