<svg width="9" height="15" viewBox="0 0 9 15" fill="none" xmlns="http://www.w3.org/2000/svg">
<path fill-rule="evenodd" clip-rule="evenodd" d="M7.91445 6.11125C8.11698 6.30127 8.23639 6.56456 8.24642 6.8432C8.25645 7.12185 8.15628 7.39304 7.96795 7.59714L2.28467 13.7541C2.19212 13.8579 2.07997 13.9421 1.95477 14.0017C1.82956 14.0614 1.69381 14.0953 1.55544 14.1015C1.41706 14.1077 1.27883 14.0861 1.14882 14.0378C1.0188 13.9896 0.899592 13.9158 0.79816 13.8206C0.696727 13.7255 0.615096 13.6109 0.55803 13.4837C0.500964 13.3564 0.469606 13.219 0.465786 13.0794C0.461965 12.9399 0.485759 12.8009 0.535779 12.6708C0.585798 12.5406 0.661042 12.4218 0.757119 12.3212L5.73011 6.93379L0.382592 1.91789C0.185561 1.72653 0.0709295 1.46487 0.0633855 1.18926C0.0558415 0.913644 0.155989 0.646132 0.342258 0.444339C0.528527 0.242545 0.786015 0.122615 1.05926 0.11038C1.33251 0.0981462 1.59965 0.194585 1.80316 0.378926L7.91445 6.11125Z" fill="#1CAF4B"/>
</svg>
