<svg width="32" height="33" viewBox="0 0 32 33" fill="none" xmlns="http://www.w3.org/2000/svg">
<rect y="0.326904" width="32" height="32" rx="16" fill="#1CAF4B"/>
<path fill-rule="evenodd" clip-rule="evenodd" d="M19.6654 15.4381C19.868 15.6282 19.9874 15.8914 19.9974 16.1701C20.0074 16.4487 19.9073 16.7199 19.7189 16.924L14.0356 23.0809C13.9431 23.1848 13.8309 23.269 13.7057 23.3286C13.5805 23.3883 13.4448 23.4222 13.3064 23.4284C13.168 23.4346 13.0298 23.4129 12.8998 23.3647C12.7698 23.3165 12.6506 23.2426 12.5491 23.1475C12.4477 23.0524 12.3661 22.9378 12.309 22.8106C12.2519 22.6833 12.2206 22.5459 12.2168 22.4063C12.2129 22.2667 12.2367 22.1278 12.2868 21.9976C12.3368 21.8675 12.412 21.7486 12.5081 21.6481L17.4811 16.2607L12.1336 11.2448C11.9365 11.0534 11.8219 10.7917 11.8144 10.5161C11.8068 10.2405 11.907 9.97301 12.0932 9.77122C12.2795 9.56942 12.537 9.44949 12.8102 9.43726C13.0835 9.42502 13.3506 9.52146 13.5541 9.7058L19.6654 15.4381Z" fill="white"/>
</svg>
