<svg width="117" height="102" viewBox="0 0 117 102" fill="none" xmlns="http://www.w3.org/2000/svg">
<path d="M85.2655 39.1696L97.8198 54.8653L88.5017 37.5538L111.516 41.4586L88.7451 35.4947L103.902 23.2688L86.5271 32.5315L87.5163 22.4709L84.7746 31.9038L72.448 16.4951L81.8617 33.9849L53.9579 29.061L81.313 36.034L66.3661 48.089L83.3893 39.0156L82.408 49.0072L85.2655 39.1696Z" fill="#FFA500"/>
<path d="M28.2799 29.6939L41.4156 39.314L30.6126 27.612L50.0661 25.2109L30.4275 25.8943L40.4862 12.3905L28.0715 24.0414L27.0045 15.6972L26.5286 23.9581L13.6316 14.5144L24.5456 26.3369L0.924123 29.0954L24.4803 28.1202L14.561 41.4356L26.7246 30.022L27.7851 38.3088L28.2799 29.6939Z" fill="white"/>
<path d="M46.3362 82.0962L44.686 97.0013L49.3015 83.0776L61.1696 97.8363L50.6849 82.1724L67.363 84.4155L51.0904 79.443L57.726 74.9092L50.3844 78.1522L52.0033 63.5186L47.3401 77.5855L33.0642 59.5956L45.7742 78.316L29.3282 76.1034L45.2702 80.976L38.6808 85.4794L46.3362 82.0962Z" fill="#FF5736"/>
</svg>
