<svg width="181" height="179" viewBox="0 0 181 179" fill="none" xmlns="http://www.w3.org/2000/svg">
<path d="M111.025 59.2841L143.401 54.8594L111.733 50.5299L137.532 8.97622L109.172 47.2659L106.199 0L103.195 47.7917L90.5046 32.251L100.785 50.5118L69 54.8594L100.994 59.2342L69.4581 109.361L103.269 63.1058L106.199 109.714L109.144 62.8927L121.749 78.3246L111.025 59.2841Z" fill="#FFA500"/>
<path d="M38.4534 119.926L60.0443 111.354L37.5368 114.475L48.6446 84.5237L35.2494 112.955L25.6228 84.7581L31.2172 114.361L19.9839 107.218L29.9931 116.453L8.79653 124.87L31.5357 121.718L17.8511 157.923L33.7235 123.658L43.2151 151.464L37.7361 122.462L48.8927 129.554L38.4534 119.926Z" fill="white"/>
<path d="M137.604 139.45L155.677 154.045L141.902 135.974L173.447 130.935L142.102 133.235L161.933 110.998L138.897 130.414L139.6 117.12L136.473 130.375L118.729 116.048L132.645 134.305L94.3872 140.172L132.03 137.164L112.474 159.091L135.043 140.071L134.346 153.273L137.604 139.45Z" fill="#FF5736"/>
</svg>
