<svg width="97" height="97" viewBox="0 0 97 97" fill="none" xmlns="http://www.w3.org/2000/svg">
<g opacity="0.72">
<g filter="url(#filter0_f_1415_1095)">
<path d="M53.4561 2.23436L59.6893 6.81649C60.0053 7.04867 60.2746 7.33996 60.4902 7.67009L56.5026 10.6016L60.8288 8.32613C60.9619 8.66808 61.046 9.03451 61.0717 9.41277L61.6134 17.5596L62.1552 9.41277C62.1801 9.03367 62.2649 8.66808 62.398 8.32528L66.7242 10.6007L62.7366 7.66925C62.953 7.33996 63.2215 7.04867 63.5375 6.81649L69.7708 2.23436L62.9958 5.79824C62.6642 5.97217 62.3124 6.08024 61.9543 6.12161L61.6134 0.999969L61.2725 6.12161C60.9152 6.0794 60.5626 5.97217 60.231 5.79824L53.4561 2.23436Z" fill="#FF5736"/>
</g>
<path d="M53.4561 2.23436L59.6893 6.81649C60.0053 7.04867 60.2746 7.33996 60.4902 7.67009L56.5026 10.6016L60.8288 8.32613C60.9619 8.66808 61.046 9.03451 61.0717 9.41277L61.6134 17.5596L62.1552 9.41277C62.1801 9.03367 62.2649 8.66808 62.398 8.32528L66.7242 10.6007L62.7366 7.66925C62.953 7.33996 63.2215 7.04867 63.5375 6.81649L69.7708 2.23436L62.9958 5.79824C62.6642 5.97217 62.3124 6.08024 61.9543 6.12161L61.6134 0.999969L61.2725 6.12161C60.9152 6.0794 60.5626 5.97217 60.231 5.79824L53.4561 2.23436Z" fill="#FF5736"/>
<g filter="url(#filter1_f_1415_1095)">
<path d="M53.4561 54.5279L59.6893 59.1101C60.0053 59.3423 60.2746 59.6335 60.4902 59.9637L56.5026 62.8952L60.8288 60.6197C60.9619 60.9617 61.046 61.3281 61.0717 61.7063L61.6134 69.8532L62.1552 61.7063C62.1801 61.3272 62.2649 60.9617 62.398 60.6189L66.7242 62.8943L62.7366 59.9628C62.953 59.6335 63.2215 59.3423 63.5375 59.1101L69.7708 54.5279L62.9958 58.0918C62.6642 58.2658 62.3124 58.3738 61.9543 58.4152L61.6134 53.2935L61.2725 58.4152C60.9152 58.373 60.5626 58.2658 60.231 58.0918L53.4561 54.5279Z" fill="#FF5736"/>
</g>
<path d="M53.4561 54.5279L59.6893 59.1101C60.0053 59.3423 60.2746 59.6335 60.4902 59.9637L56.5026 62.8952L60.8288 60.6197C60.9619 60.9617 61.046 61.3281 61.0717 61.7063L61.6134 69.8532L62.1552 61.7063C62.1801 61.3272 62.2649 60.9617 62.398 60.6189L66.7242 62.8943L62.7366 59.9628C62.953 59.6335 63.2215 59.3423 63.5375 59.1101L69.7708 54.5279L62.9958 58.0918C62.6642 58.2658 62.3124 58.3738 61.9543 58.4152L61.6134 53.2935L61.2725 58.4152C60.9152 58.373 60.5626 58.2658 60.231 58.0918L53.4561 54.5279Z" fill="#FF5736"/>
<g filter="url(#filter2_f_1415_1095)">
<path d="M27.2295 28.3812L33.4627 32.9633C33.7787 33.1955 34.0481 33.4868 34.2637 33.8169L30.276 36.7484L34.6022 34.4729C34.7353 34.8149 34.8194 35.1813 34.8451 35.5596L35.3868 43.7064L35.9286 35.5596C35.9535 35.1805 36.0384 34.8149 36.1715 34.4721L40.4976 36.7475L36.51 33.816C36.7264 33.4868 36.995 33.1955 37.311 32.9633L43.5442 28.3812L36.7692 31.945C36.4377 32.119 36.0858 32.227 35.7278 32.2684L35.3868 27.1468L35.0459 32.2684C34.6886 32.2262 34.336 32.119 34.0045 31.945L27.2295 28.3812Z" fill="#1CAF4B"/>
</g>
<path d="M27.2295 28.3812L33.4627 32.9633C33.7787 33.1955 34.0481 33.4868 34.2637 33.8169L30.276 36.7484L34.6022 34.4729C34.7353 34.8149 34.8194 35.1813 34.8451 35.5596L35.3868 43.7064L35.9286 35.5596C35.9535 35.1805 36.0384 34.8149 36.1715 34.4721L40.4976 36.7475L36.51 33.816C36.7264 33.4868 36.995 33.1955 37.311 32.9633L43.5442 28.3812L36.7692 31.945C36.4377 32.119 36.0858 32.227 35.7278 32.2684L35.3868 27.1468L35.0459 32.2684C34.6886 32.2262 34.336 32.119 34.0045 31.945L27.2295 28.3812Z" fill="#1CAF4B"/>
<g filter="url(#filter3_f_1415_1095)">
<path d="M27.2295 54.5279L33.4627 59.1101C33.7787 59.3423 34.0481 59.6335 34.2637 59.9637L30.276 62.8952L34.6022 60.6197C34.7353 60.9617 34.8194 61.3281 34.8451 61.7063L35.3868 69.8532L35.9286 61.7063C35.9535 61.3272 36.0384 60.9617 36.1715 60.6189L40.4976 62.8943L36.51 59.9628C36.7264 59.6335 36.995 59.3423 37.311 59.1101L43.5442 54.5279L36.7692 58.0918C36.4377 58.2658 36.0858 58.3738 35.7278 58.4152L35.3868 53.2935L35.0459 58.4152C34.6886 58.373 34.336 58.2658 34.0045 58.0918L27.2295 54.5279Z" fill="#1CAF4B"/>
</g>
<path d="M27.2295 54.5279L33.4627 59.1101C33.7787 59.3423 34.0481 59.6335 34.2637 59.9637L30.276 62.8952L34.6022 60.6197C34.7353 60.9617 34.8194 61.3281 34.8451 61.7063L35.3868 69.8532L35.9286 61.7063C35.9535 61.3272 36.0384 60.9617 36.1715 60.6189L40.4976 62.8943L36.51 59.9628C36.7264 59.6335 36.995 59.3423 37.311 59.1101L43.5442 54.5279L36.7692 58.0918C36.4377 58.2658 36.0858 58.3738 35.7278 58.4152L35.3868 53.2935L35.0459 58.4152C34.6886 58.373 34.336 58.2658 34.0045 58.0918L27.2295 54.5279Z" fill="#1CAF4B"/>
<g filter="url(#filter4_f_1415_1095)">
<path d="M79.6855 80.6748L85.9188 85.2569C86.2348 85.4891 86.5041 85.7804 86.7197 86.1105L82.7321 89.042L87.0583 86.7665C87.1914 87.1085 87.2755 87.4749 87.3012 87.8532L87.8429 96L88.3846 87.8532C88.4096 87.4741 88.4944 87.1085 88.6275 86.7657L92.9537 89.0411L88.9661 86.1096C89.1825 85.7804 89.451 85.4891 89.767 85.2569L96.0003 80.6748L89.2253 84.2386C88.8937 84.4126 88.5419 84.5206 88.1838 84.562L87.8429 79.4404L87.502 84.562C87.1447 84.5198 86.7921 84.4126 86.4605 84.2386L79.6855 80.6748Z" fill="#1CAF4B"/>
</g>
<path d="M79.6855 80.6748L85.9188 85.2569C86.2348 85.4891 86.5041 85.7804 86.7197 86.1105L82.7321 89.042L87.0583 86.7665C87.1914 87.1085 87.2755 87.4749 87.3012 87.8532L87.8429 96L88.3846 87.8532C88.4096 87.4741 88.4944 87.1085 88.6275 86.7657L92.9537 89.0411L88.9661 86.1096C89.1825 85.7804 89.451 85.4891 89.767 85.2569L96.0003 80.6748L89.2253 84.2386C88.8937 84.4126 88.5419 84.5206 88.1838 84.562L87.8429 79.4404L87.502 84.562C87.1447 84.5198 86.7921 84.4126 86.4605 84.2386L79.6855 80.6748Z" fill="#1CAF4B"/>
<g filter="url(#filter5_f_1415_1095)">
<path d="M1 80.6748L7.23322 85.2569C7.54924 85.4891 7.81856 85.7804 8.03417 86.1105L4.04654 89.042L8.37275 86.7665C8.50585 87.1085 8.58993 87.4749 8.61561 87.8532L9.15736 96L9.6991 87.8532C9.72401 87.4741 9.80886 87.1085 9.94196 86.7657L14.2681 89.0411L10.2805 86.1096C10.4969 85.7804 10.7655 85.4891 11.0815 85.2569L17.3147 80.6748L10.5397 84.2386C10.2082 84.4126 9.85633 84.5206 9.49827 84.562L9.15736 79.4404L8.81642 84.562C8.45915 84.5198 8.10655 84.4126 7.77496 84.2386L1 80.6748Z" fill="#FF5736"/>
</g>
<path d="M1 80.6748L7.23322 85.2569C7.54924 85.4891 7.81856 85.7804 8.03417 86.1105L4.04654 89.042L8.37275 86.7665C8.50585 87.1085 8.58993 87.4749 8.61561 87.8532L9.15736 96L9.6991 87.8532C9.72401 87.4741 9.80886 87.1085 9.94196 86.7657L14.2681 89.0411L10.2805 86.1096C10.4969 85.7804 10.7655 85.4891 11.0815 85.2569L17.3147 80.6748L10.5397 84.2386C10.2082 84.4126 9.85633 84.5206 9.49827 84.562L9.15736 79.4404L8.81642 84.562C8.45915 84.5198 8.10655 84.4126 7.77496 84.2386L1 80.6748Z" fill="#FF5736"/>
<g filter="url(#filter6_f_1415_1095)">
<path d="M79.6855 2.23436L85.9188 6.81649C86.2348 7.04867 86.5041 7.33996 86.7197 7.67009L82.7321 10.6016L87.0583 8.32613C87.1914 8.66808 87.2755 9.03451 87.3012 9.41277L87.8429 17.5596L88.3846 9.41277C88.4096 9.03367 88.4944 8.66808 88.6275 8.32528L92.9537 10.6007L88.9661 7.66925C89.1825 7.33996 89.451 7.04867 89.767 6.81649L96.0003 2.23436L89.2253 5.79824C88.8937 5.97217 88.5419 6.08024 88.1838 6.12161L87.8429 0.999969L87.502 6.12161C87.1447 6.0794 86.7921 5.97217 86.4605 5.79824L79.6855 2.23436Z" fill="#9A9A9A"/>
</g>
<path d="M79.6855 2.23436L85.9188 6.81649C86.2348 7.04867 86.5041 7.33996 86.7197 7.67009L82.7321 10.6016L87.0583 8.32613C87.1914 8.66808 87.2755 9.03451 87.3012 9.41277L87.8429 17.5596L88.3846 9.41277C88.4096 9.03367 88.4944 8.66808 88.6275 8.32528L92.9537 10.6007L88.9661 7.66925C89.1825 7.33996 89.451 7.04867 89.767 6.81649L96.0003 2.23436L89.2253 5.79824C88.8937 5.97217 88.5419 6.08024 88.1838 6.12161L87.8429 0.999969L87.502 6.12161C87.1447 6.0794 86.7921 5.97217 86.4605 5.79824L79.6855 2.23436Z" fill="#9A9A9A"/>
<g filter="url(#filter7_f_1415_1095)">
<path d="M79.6855 28.3812L85.9188 32.9633C86.2348 33.1955 86.5041 33.4868 86.7197 33.8169L82.7321 36.7484L87.0583 34.4729C87.1914 34.8149 87.2755 35.1813 87.3012 35.5596L87.8429 43.7064L88.3846 35.5596C88.4096 35.1805 88.4944 34.8149 88.6275 34.4721L92.9537 36.7475L88.9661 33.816C89.1825 33.4868 89.451 33.1955 89.767 32.9633L96.0003 28.3812L89.2253 31.945C88.8937 32.119 88.5419 32.227 88.1838 32.2684L87.8429 27.1468L87.502 32.2684C87.1447 32.2262 86.7921 32.119 86.4605 31.945L79.6855 28.3812Z" fill="#9A9A9A"/>
</g>
<path d="M79.6855 28.3812L85.9188 32.9633C86.2348 33.1955 86.5041 33.4868 86.7197 33.8169L82.7321 36.7484L87.0583 34.4729C87.1914 34.8149 87.2755 35.1813 87.3012 35.5596L87.8429 43.7064L88.3846 35.5596C88.4096 35.1805 88.4944 34.8149 88.6275 34.4721L92.9537 36.7475L88.9661 33.816C89.1825 33.4868 89.451 33.1955 89.767 32.9633L96.0003 28.3812L89.2253 31.945C88.8937 32.119 88.5419 32.227 88.1838 32.2684L87.8429 27.1468L87.502 32.2684C87.1447 32.2262 86.7921 32.119 86.4605 31.945L79.6855 28.3812Z" fill="#9A9A9A"/>
<g filter="url(#filter8_f_1415_1095)">
<path d="M53.4561 28.3812L59.6893 32.9633C60.0053 33.1955 60.2746 33.4868 60.4902 33.8169L56.5026 36.7484L60.8288 34.4729C60.9619 34.8149 61.046 35.1813 61.0717 35.5596L61.6134 43.7064L62.1552 35.5596C62.1801 35.1805 62.2649 34.8149 62.398 34.4721L66.7242 36.7475L62.7366 33.816C62.953 33.4868 63.2215 33.1955 63.5375 32.9633L69.7708 28.3812L62.9958 31.945C62.6642 32.119 62.3124 32.227 61.9543 32.2684L61.6134 27.1468L61.2725 32.2684C60.9152 32.2262 60.5626 32.119 60.231 31.945L53.4561 28.3812Z" fill="#9A9A9A"/>
</g>
<path d="M53.4561 28.3812L59.6893 32.9633C60.0053 33.1955 60.2746 33.4868 60.4902 33.8169L56.5026 36.7484L60.8288 34.4729C60.9619 34.8149 61.046 35.1813 61.0717 35.5596L61.6134 43.7064L62.1552 35.5596C62.1801 35.1805 62.2649 34.8149 62.398 34.4721L66.7242 36.7475L62.7366 33.816C62.953 33.4868 63.2215 33.1955 63.5375 32.9633L69.7708 28.3812L62.9958 31.945C62.6642 32.119 62.3124 32.227 61.9543 32.2684L61.6134 27.1468L61.2725 32.2684C60.9152 32.2262 60.5626 32.119 60.231 31.945L53.4561 28.3812Z" fill="#9A9A9A"/>
<g filter="url(#filter9_f_1415_1095)">
<path d="M79.6855 54.5279L85.9188 59.1101C86.2348 59.3423 86.5041 59.6335 86.7197 59.9637L82.7321 62.8952L87.0583 60.6197C87.1914 60.9617 87.2755 61.3281 87.3012 61.7063L87.8429 69.8532L88.3846 61.7063C88.4096 61.3272 88.4944 60.9617 88.6275 60.6189L92.9537 62.8943L88.9661 59.9628C89.1825 59.6335 89.451 59.3423 89.767 59.1101L96.0003 54.5279L89.2253 58.0918C88.8937 58.2658 88.5419 58.3738 88.1838 58.4152L87.8429 53.2935L87.502 58.4152C87.1447 58.373 86.7921 58.2658 86.4605 58.0918L79.6855 54.5279Z" fill="#9A9A9A"/>
</g>
<path d="M79.6855 54.5279L85.9188 59.1101C86.2348 59.3423 86.5041 59.6335 86.7197 59.9637L82.7321 62.8952L87.0583 60.6197C87.1914 60.9617 87.2755 61.3281 87.3012 61.7063L87.8429 69.8532L88.3846 61.7063C88.4096 61.3272 88.4944 60.9617 88.6275 60.6189L92.9537 62.8943L88.9661 59.9628C89.1825 59.6335 89.451 59.3423 89.767 59.1101L96.0003 54.5279L89.2253 58.0918C88.8937 58.2658 88.5419 58.3738 88.1838 58.4152L87.8429 53.2935L87.502 58.4152C87.1447 58.373 86.7921 58.2658 86.4605 58.0918L79.6855 54.5279Z" fill="#9A9A9A"/>
<g filter="url(#filter10_f_1415_1095)">
<path d="M53.4561 80.6748L59.6893 85.2569C60.0053 85.4891 60.2746 85.7804 60.4902 86.1105L56.5026 89.042L60.8288 86.7665C60.9619 87.1085 61.046 87.4749 61.0717 87.8532L61.6134 96L62.1552 87.8532C62.1801 87.4741 62.2649 87.1085 62.398 86.7657L66.7242 89.0411L62.7366 86.1096C62.953 85.7804 63.2215 85.4891 63.5375 85.2569L69.7708 80.6748L62.9958 84.2386C62.6642 84.4126 62.3124 84.5206 61.9543 84.562L61.6134 79.4404L61.2725 84.562C60.9152 84.5198 60.5626 84.4126 60.231 84.2386L53.4561 80.6748Z" fill="#9A9A9A"/>
</g>
<path d="M53.4561 80.6748L59.6893 85.2569C60.0053 85.4891 60.2746 85.7804 60.4902 86.1105L56.5026 89.042L60.8288 86.7665C60.9619 87.1085 61.046 87.4749 61.0717 87.8532L61.6134 96L62.1552 87.8532C62.1801 87.4741 62.2649 87.1085 62.398 86.7657L66.7242 89.0411L62.7366 86.1096C62.953 85.7804 63.2215 85.4891 63.5375 85.2569L69.7708 80.6748L62.9958 84.2386C62.6642 84.4126 62.3124 84.5206 61.9543 84.562L61.6134 79.4404L61.2725 84.562C60.9152 84.5198 60.5626 84.4126 60.231 84.2386L53.4561 80.6748Z" fill="#9A9A9A"/>
<g filter="url(#filter11_f_1415_1095)">
<path d="M27.2295 80.6748L33.4627 85.2569C33.7787 85.4891 34.0481 85.7804 34.2637 86.1105L30.276 89.042L34.6022 86.7665C34.7353 87.1085 34.8194 87.4749 34.8451 87.8532L35.3868 96L35.9286 87.8532C35.9535 87.4741 36.0384 87.1085 36.1715 86.7657L40.4976 89.0411L36.51 86.1096C36.7264 85.7804 36.995 85.4891 37.311 85.2569L43.5442 80.6748L36.7692 84.2386C36.4377 84.4126 36.0858 84.5206 35.7278 84.562L35.3868 79.4404L35.0459 84.562C34.6886 84.5198 34.336 84.4126 34.0045 84.2386L27.2295 80.6748Z" fill="#9A9A9A"/>
</g>
<path d="M27.2295 80.6748L33.4627 85.2569C33.7787 85.4891 34.0481 85.7804 34.2637 86.1105L30.276 89.042L34.6022 86.7665C34.7353 87.1085 34.8194 87.4749 34.8451 87.8532L35.3868 96L35.9286 87.8532C35.9535 87.4741 36.0384 87.1085 36.1715 86.7657L40.4976 89.0411L36.51 86.1096C36.7264 85.7804 36.995 85.4891 37.311 85.2569L43.5442 80.6748L36.7692 84.2386C36.4377 84.4126 36.0858 84.5206 35.7278 84.562L35.3868 79.4404L35.0459 84.562C34.6886 84.5198 34.336 84.4126 34.0045 84.2386L27.2295 80.6748Z" fill="#9A9A9A"/>
<g filter="url(#filter12_f_1415_1095)">
<path d="M1 54.528L7.23322 59.1101C7.54924 59.3423 7.81856 59.6336 8.03417 59.9637L4.04654 62.8952L8.37275 60.6197C8.50585 60.9617 8.58993 61.3281 8.61561 61.7064L9.15736 69.8532L9.6991 61.7064C9.72401 61.3273 9.80886 60.9617 9.94196 60.6189L14.2681 62.8943L10.2805 59.9629C10.4969 59.6336 10.7655 59.3423 11.0815 59.1101L17.3147 54.528L10.5397 58.0919C10.2082 58.2658 9.85633 58.3739 9.49827 58.4152L9.15736 53.2936L8.81642 58.4152C8.45915 58.373 8.10655 58.2658 7.77496 58.0919L1 54.528Z" fill="#9A9A9A"/>
</g>
<path d="M1 54.528L7.23322 59.1101C7.54924 59.3423 7.81856 59.6336 8.03417 59.9637L4.04654 62.8952L8.37275 60.6197C8.50585 60.9617 8.58993 61.3281 8.61561 61.7064L9.15736 69.8532L9.6991 61.7064C9.72401 61.3273 9.80886 60.9617 9.94196 60.6189L14.2681 62.8943L10.2805 59.9629C10.4969 59.6336 10.7655 59.3423 11.0815 59.1101L17.3147 54.528L10.5397 58.0919C10.2082 58.2658 9.85633 58.3739 9.49827 58.4152L9.15736 53.2936L8.81642 58.4152C8.45915 58.373 8.10655 58.2658 7.77496 58.0919L1 54.528Z" fill="#9A9A9A"/>
</g>
<defs>
<filter id="filter0_f_1415_1095" x="52.4561" y="-3.05176e-05" width="18.3145" height="18.5596" filterUnits="userSpaceOnUse" color-interpolation-filters="sRGB">
<feFlood flood-opacity="0" result="BackgroundImageFix"/>
<feBlend mode="normal" in="SourceGraphic" in2="BackgroundImageFix" result="shape"/>
<feGaussianBlur stdDeviation="0.5" result="effect1_foregroundBlur_1415_1095"/>
</filter>
<filter id="filter1_f_1415_1095" x="52.4561" y="52.2935" width="18.3145" height="18.5596" filterUnits="userSpaceOnUse" color-interpolation-filters="sRGB">
<feFlood flood-opacity="0" result="BackgroundImageFix"/>
<feBlend mode="normal" in="SourceGraphic" in2="BackgroundImageFix" result="shape"/>
<feGaussianBlur stdDeviation="0.5" result="effect1_foregroundBlur_1415_1095"/>
</filter>
<filter id="filter2_f_1415_1095" x="26.2295" y="26.1468" width="18.3145" height="18.5596" filterUnits="userSpaceOnUse" color-interpolation-filters="sRGB">
<feFlood flood-opacity="0" result="BackgroundImageFix"/>
<feBlend mode="normal" in="SourceGraphic" in2="BackgroundImageFix" result="shape"/>
<feGaussianBlur stdDeviation="0.5" result="effect1_foregroundBlur_1415_1095"/>
</filter>
<filter id="filter3_f_1415_1095" x="26.2295" y="52.2935" width="18.3145" height="18.5596" filterUnits="userSpaceOnUse" color-interpolation-filters="sRGB">
<feFlood flood-opacity="0" result="BackgroundImageFix"/>
<feBlend mode="normal" in="SourceGraphic" in2="BackgroundImageFix" result="shape"/>
<feGaussianBlur stdDeviation="0.5" result="effect1_foregroundBlur_1415_1095"/>
</filter>
<filter id="filter4_f_1415_1095" x="78.6855" y="78.4404" width="18.3145" height="18.5596" filterUnits="userSpaceOnUse" color-interpolation-filters="sRGB">
<feFlood flood-opacity="0" result="BackgroundImageFix"/>
<feBlend mode="normal" in="SourceGraphic" in2="BackgroundImageFix" result="shape"/>
<feGaussianBlur stdDeviation="0.5" result="effect1_foregroundBlur_1415_1095"/>
</filter>
<filter id="filter5_f_1415_1095" x="0" y="78.4404" width="18.3145" height="18.5596" filterUnits="userSpaceOnUse" color-interpolation-filters="sRGB">
<feFlood flood-opacity="0" result="BackgroundImageFix"/>
<feBlend mode="normal" in="SourceGraphic" in2="BackgroundImageFix" result="shape"/>
<feGaussianBlur stdDeviation="0.5" result="effect1_foregroundBlur_1415_1095"/>
</filter>
<filter id="filter6_f_1415_1095" x="78.6855" y="-3.05176e-05" width="18.3145" height="18.5596" filterUnits="userSpaceOnUse" color-interpolation-filters="sRGB">
<feFlood flood-opacity="0" result="BackgroundImageFix"/>
<feBlend mode="normal" in="SourceGraphic" in2="BackgroundImageFix" result="shape"/>
<feGaussianBlur stdDeviation="0.5" result="effect1_foregroundBlur_1415_1095"/>
</filter>
<filter id="filter7_f_1415_1095" x="78.6855" y="26.1468" width="18.3145" height="18.5596" filterUnits="userSpaceOnUse" color-interpolation-filters="sRGB">
<feFlood flood-opacity="0" result="BackgroundImageFix"/>
<feBlend mode="normal" in="SourceGraphic" in2="BackgroundImageFix" result="shape"/>
<feGaussianBlur stdDeviation="0.5" result="effect1_foregroundBlur_1415_1095"/>
</filter>
<filter id="filter8_f_1415_1095" x="52.4561" y="26.1468" width="18.3145" height="18.5596" filterUnits="userSpaceOnUse" color-interpolation-filters="sRGB">
<feFlood flood-opacity="0" result="BackgroundImageFix"/>
<feBlend mode="normal" in="SourceGraphic" in2="BackgroundImageFix" result="shape"/>
<feGaussianBlur stdDeviation="0.5" result="effect1_foregroundBlur_1415_1095"/>
</filter>
<filter id="filter9_f_1415_1095" x="78.6855" y="52.2935" width="18.3145" height="18.5596" filterUnits="userSpaceOnUse" color-interpolation-filters="sRGB">
<feFlood flood-opacity="0" result="BackgroundImageFix"/>
<feBlend mode="normal" in="SourceGraphic" in2="BackgroundImageFix" result="shape"/>
<feGaussianBlur stdDeviation="0.5" result="effect1_foregroundBlur_1415_1095"/>
</filter>
<filter id="filter10_f_1415_1095" x="52.4561" y="78.4404" width="18.3145" height="18.5596" filterUnits="userSpaceOnUse" color-interpolation-filters="sRGB">
<feFlood flood-opacity="0" result="BackgroundImageFix"/>
<feBlend mode="normal" in="SourceGraphic" in2="BackgroundImageFix" result="shape"/>
<feGaussianBlur stdDeviation="0.5" result="effect1_foregroundBlur_1415_1095"/>
</filter>
<filter id="filter11_f_1415_1095" x="26.2295" y="78.4404" width="18.3145" height="18.5596" filterUnits="userSpaceOnUse" color-interpolation-filters="sRGB">
<feFlood flood-opacity="0" result="BackgroundImageFix"/>
<feBlend mode="normal" in="SourceGraphic" in2="BackgroundImageFix" result="shape"/>
<feGaussianBlur stdDeviation="0.5" result="effect1_foregroundBlur_1415_1095"/>
</filter>
<filter id="filter12_f_1415_1095" x="0" y="52.2936" width="18.3145" height="18.5596" filterUnits="userSpaceOnUse" color-interpolation-filters="sRGB">
<feFlood flood-opacity="0" result="BackgroundImageFix"/>
<feBlend mode="normal" in="SourceGraphic" in2="BackgroundImageFix" result="shape"/>
<feGaussianBlur stdDeviation="0.5" result="effect1_foregroundBlur_1415_1095"/>
</filter>
</defs>
</svg>
