<svg width="97" height="97" viewBox="0 0 97 97" fill="none" xmlns="http://www.w3.org/2000/svg">
<g opacity="0.72">
<g filter="url(#filter0_f_1437_120)">
<path d="M43.5439 94.7656L37.3107 90.1835C36.9947 89.9513 36.7254 89.66 36.5098 89.3299L40.4974 86.3984L36.1712 88.6738C36.0381 88.3319 35.954 87.9655 35.9283 87.5872L35.3866 79.4404L34.8448 87.5872C34.8199 87.9663 34.7351 88.3319 34.602 88.6747L30.2758 86.3992L34.2634 89.3307C34.047 89.66 33.7785 89.9513 33.4625 90.1835L27.2292 94.7656L34.0042 91.2017C34.3358 91.0278 34.6876 90.9197 35.0457 90.8784L35.3866 96L35.7275 90.8784C36.0848 90.9206 36.4374 91.0278 36.769 91.2017L43.5439 94.7656Z" fill="#FF5736"/>
</g>
<path d="M43.5439 94.7656L37.3107 90.1835C36.9947 89.9513 36.7254 89.66 36.5098 89.3299L40.4974 86.3984L36.1712 88.6738C36.0381 88.3319 35.954 87.9655 35.9283 87.5872L35.3866 79.4404L34.8448 87.5872C34.8199 87.9663 34.7351 88.3319 34.602 88.6747L30.2758 86.3992L34.2634 89.3307C34.047 89.66 33.7785 89.9513 33.4625 90.1835L27.2292 94.7656L34.0042 91.2017C34.3358 91.0278 34.6876 90.9197 35.0457 90.8784L35.3866 96L35.7275 90.8784C36.0848 90.9206 36.4374 91.0278 36.769 91.2017L43.5439 94.7656Z" fill="#FF5736"/>
<g filter="url(#filter1_f_1437_120)">
<path d="M43.5439 42.4721L37.3107 37.89C36.9947 37.6578 36.7254 37.3665 36.5098 37.0364L40.4974 34.1049L36.1712 36.3804C36.0381 36.0384 35.954 35.672 35.9283 35.2937L35.3866 27.1469L34.8448 35.2937C34.8199 35.6728 34.7351 36.0384 34.602 36.3812L30.2758 34.1058L34.2634 37.0373C34.047 37.3665 33.7785 37.6578 33.4625 37.89L27.2292 42.4721L34.0042 38.9083C34.3358 38.7343 34.6876 38.6263 35.0457 38.5849L35.3866 43.7065L35.7275 38.5849C36.0848 38.6271 36.4374 38.7343 36.769 38.9083L43.5439 42.4721Z" fill="#FF5736"/>
</g>
<path d="M43.5439 42.4721L37.3107 37.89C36.9947 37.6578 36.7254 37.3665 36.5098 37.0364L40.4974 34.1049L36.1712 36.3804C36.0381 36.0384 35.954 35.672 35.9283 35.2937L35.3866 27.1469L34.8448 35.2937C34.8199 35.6728 34.7351 36.0384 34.602 36.3812L30.2758 34.1058L34.2634 37.0373C34.047 37.3665 33.7785 37.6578 33.4625 37.89L27.2292 42.4721L34.0042 38.9083C34.3358 38.7343 34.6876 38.6263 35.0457 38.5849L35.3866 43.7065L35.7275 38.5849C36.0848 38.6271 36.4374 38.7343 36.769 38.9083L43.5439 42.4721Z" fill="#FF5736"/>
<g filter="url(#filter2_f_1437_120)">
<path d="M69.7705 68.6189L63.5373 64.0368C63.2213 63.8046 62.9519 63.5133 62.7363 63.1831L66.724 60.2517L62.3978 62.5271C62.2647 62.1852 62.1806 61.8187 62.1549 61.4405L61.6132 53.2936L61.0714 61.4405C61.0465 61.8196 60.9616 62.1852 60.8285 62.528L56.5024 60.2525L60.49 63.184C60.2736 63.5133 60.005 63.8046 59.689 64.0368L53.4558 68.6189L60.2308 65.055C60.5623 64.8811 60.9142 64.773 61.2722 64.7316L61.6132 69.8533L61.9541 64.7316C62.3114 64.7738 62.664 64.8811 62.9955 65.055L69.7705 68.6189Z" fill="#1CAF4B"/>
</g>
<path d="M69.7705 68.6189L63.5373 64.0368C63.2213 63.8046 62.9519 63.5133 62.7363 63.1831L66.724 60.2517L62.3978 62.5271C62.2647 62.1852 62.1806 61.8187 62.1549 61.4405L61.6132 53.2936L61.0714 61.4405C61.0465 61.8196 60.9616 62.1852 60.8285 62.528L56.5024 60.2525L60.49 63.184C60.2736 63.5133 60.005 63.8046 59.689 64.0368L53.4558 68.6189L60.2308 65.055C60.5623 64.8811 60.9142 64.773 61.2722 64.7316L61.6132 69.8533L61.9541 64.7316C62.3114 64.7738 62.664 64.8811 62.9955 65.055L69.7705 68.6189Z" fill="#1CAF4B"/>
<g filter="url(#filter3_f_1437_120)">
<path d="M69.7705 42.4721L63.5373 37.89C63.2213 37.6578 62.9519 37.3665 62.7363 37.0364L66.724 34.1049L62.3978 36.3804C62.2647 36.0384 62.1806 35.672 62.1549 35.2937L61.6132 27.1469L61.0714 35.2937C61.0465 35.6728 60.9616 36.0384 60.8285 36.3812L56.5024 34.1058L60.49 37.0373C60.2736 37.3665 60.005 37.6578 59.689 37.89L53.4558 42.4721L60.2308 38.9083C60.5623 38.7343 60.9142 38.6263 61.2722 38.5849L61.6132 43.7065L61.9541 38.5849C62.3114 38.6271 62.664 38.7343 62.9955 38.9083L69.7705 42.4721Z" fill="#1CAF4B"/>
</g>
<path d="M69.7705 42.4721L63.5373 37.89C63.2213 37.6578 62.9519 37.3665 62.7363 37.0364L66.724 34.1049L62.3978 36.3804C62.2647 36.0384 62.1806 35.672 62.1549 35.2937L61.6132 27.1469L61.0714 35.2937C61.0465 35.6728 60.9616 36.0384 60.8285 36.3812L56.5024 34.1058L60.49 37.0373C60.2736 37.3665 60.005 37.6578 59.689 37.89L53.4558 42.4721L60.2308 38.9083C60.5623 38.7343 60.9142 38.6263 61.2722 38.5849L61.6132 43.7065L61.9541 38.5849C62.3114 38.6271 62.664 38.7343 62.9955 38.9083L69.7705 42.4721Z" fill="#1CAF4B"/>
<g filter="url(#filter4_f_1437_120)">
<path d="M17.3145 16.3252L11.0812 11.7431C10.7652 11.5109 10.4959 11.2196 10.2803 10.8894L14.2679 7.95796L9.9417 10.2334C9.8086 9.89146 9.72453 9.52503 9.69884 9.14677L9.1571 0.999935L8.61535 9.14677C8.59044 9.52587 8.50559 9.89146 8.37249 10.2343L4.0463 7.95881L8.03391 10.8903C7.81752 11.2196 7.54898 11.5109 7.23296 11.7431L0.999741 16.3252L7.7747 12.7613C8.10629 12.5874 8.45813 12.4793 8.81618 12.4379L9.1571 17.5596L9.49803 12.4379C9.85531 12.4801 10.2079 12.5874 10.5395 12.7613L17.3145 16.3252Z" fill="#1CAF4B"/>
</g>
<path d="M17.3145 16.3252L11.0812 11.7431C10.7652 11.5109 10.4959 11.2196 10.2803 10.8894L14.2679 7.95796L9.9417 10.2334C9.8086 9.89146 9.72453 9.52503 9.69884 9.14677L9.1571 0.999935L8.61535 9.14677C8.59044 9.52587 8.50559 9.89146 8.37249 10.2343L4.0463 7.95881L8.03391 10.8903C7.81752 11.2196 7.54898 11.5109 7.23296 11.7431L0.999741 16.3252L7.7747 12.7613C8.10629 12.5874 8.45813 12.4793 8.81618 12.4379L9.1571 17.5596L9.49803 12.4379C9.85531 12.4801 10.2079 12.5874 10.5395 12.7613L17.3145 16.3252Z" fill="#1CAF4B"/>
<g filter="url(#filter5_f_1437_120)">
<path d="M96 16.3252L89.7668 11.7431C89.4508 11.5109 89.1814 11.2196 88.9658 10.8894L92.9535 7.95796L88.6273 10.2334C88.4941 9.89146 88.4101 9.52503 88.3844 9.14677L87.8426 0.999935L87.3009 9.14677C87.276 9.52587 87.1911 9.89146 87.058 10.2343L82.7319 7.95881L86.7195 10.8903C86.5031 11.2196 86.2345 11.5109 85.9185 11.7431L79.6853 16.3252L86.4603 12.7613C86.7918 12.5874 87.1437 12.4793 87.5017 12.4379L87.8426 17.5596L88.1836 12.4379C88.5409 12.4801 88.8934 12.5874 89.225 12.7613L96 16.3252Z" fill="#FF5736"/>
</g>
<path d="M96 16.3252L89.7668 11.7431C89.4508 11.5109 89.1814 11.2196 88.9658 10.8894L92.9535 7.95796L88.6273 10.2334C88.4941 9.89146 88.4101 9.52503 88.3844 9.14677L87.8426 0.999935L87.3009 9.14677C87.276 9.52587 87.1911 9.89146 87.058 10.2343L82.7319 7.95881L86.7195 10.8903C86.5031 11.2196 86.2345 11.5109 85.9185 11.7431L79.6853 16.3252L86.4603 12.7613C86.7918 12.5874 87.1437 12.4793 87.5017 12.4379L87.8426 17.5596L88.1836 12.4379C88.5409 12.4801 88.8934 12.5874 89.225 12.7613L96 16.3252Z" fill="#FF5736"/>
<g filter="url(#filter6_f_1437_120)">
<path d="M17.3145 94.7656L11.0812 90.1835C10.7652 89.9513 10.4959 89.66 10.2803 89.3299L14.2679 86.3984L9.9417 88.6738C9.8086 88.3319 9.72453 87.9655 9.69884 87.5872L9.1571 79.4404L8.61535 87.5872C8.59044 87.9663 8.50559 88.3319 8.37249 88.6747L4.0463 86.3992L8.03391 89.3307C7.81752 89.66 7.54898 89.9513 7.23296 90.1835L0.999741 94.7656L7.7747 91.2017C8.10629 91.0278 8.45813 90.9197 8.81618 90.8784L9.1571 96L9.49803 90.8784C9.85531 90.9206 10.2079 91.0278 10.5395 91.2017L17.3145 94.7656Z" fill="#9A9A9A"/>
</g>
<path d="M17.3145 94.7656L11.0812 90.1835C10.7652 89.9513 10.4959 89.66 10.2803 89.3299L14.2679 86.3984L9.9417 88.6738C9.8086 88.3319 9.72453 87.9655 9.69884 87.5872L9.1571 79.4404L8.61535 87.5872C8.59044 87.9663 8.50559 88.3319 8.37249 88.6747L4.0463 86.3992L8.03391 89.3307C7.81752 89.66 7.54898 89.9513 7.23296 90.1835L0.999741 94.7656L7.7747 91.2017C8.10629 91.0278 8.45813 90.9197 8.81618 90.8784L9.1571 96L9.49803 90.8784C9.85531 90.9206 10.2079 91.0278 10.5395 91.2017L17.3145 94.7656Z" fill="#9A9A9A"/>
<g filter="url(#filter7_f_1437_120)">
<path d="M17.3145 68.6189L11.0812 64.0368C10.7652 63.8046 10.4959 63.5133 10.2803 63.1831L14.2679 60.2517L9.9417 62.5271C9.8086 62.1852 9.72453 61.8187 9.69884 61.4405L9.1571 53.2936L8.61535 61.4405C8.59044 61.8196 8.50559 62.1852 8.37249 62.528L4.0463 60.2525L8.03391 63.184C7.81752 63.5133 7.54898 63.8046 7.23296 64.0368L0.999741 68.6189L7.7747 65.055C8.10629 64.8811 8.45813 64.773 8.81618 64.7316L9.1571 69.8533L9.49803 64.7316C9.85531 64.7738 10.2079 64.8811 10.5395 65.055L17.3145 68.6189Z" fill="#9A9A9A"/>
</g>
<path d="M17.3145 68.6189L11.0812 64.0368C10.7652 63.8046 10.4959 63.5133 10.2803 63.1831L14.2679 60.2517L9.9417 62.5271C9.8086 62.1852 9.72453 61.8187 9.69884 61.4405L9.1571 53.2936L8.61535 61.4405C8.59044 61.8196 8.50559 62.1852 8.37249 62.528L4.0463 60.2525L8.03391 63.184C7.81752 63.5133 7.54898 63.8046 7.23296 64.0368L0.999741 68.6189L7.7747 65.055C8.10629 64.8811 8.45813 64.773 8.81618 64.7316L9.1571 69.8533L9.49803 64.7316C9.85531 64.7738 10.2079 64.8811 10.5395 65.055L17.3145 68.6189Z" fill="#9A9A9A"/>
<g filter="url(#filter8_f_1437_120)">
<path d="M43.5439 68.6189L37.3107 64.0368C36.9947 63.8046 36.7254 63.5133 36.5098 63.1831L40.4974 60.2517L36.1712 62.5271C36.0381 62.1852 35.954 61.8187 35.9283 61.4405L35.3866 53.2936L34.8448 61.4405C34.8199 61.8196 34.7351 62.1852 34.602 62.528L30.2758 60.2525L34.2634 63.184C34.047 63.5133 33.7785 63.8046 33.4625 64.0368L27.2292 68.6189L34.0042 65.055C34.3358 64.8811 34.6876 64.773 35.0457 64.7316L35.3866 69.8533L35.7275 64.7316C36.0848 64.7738 36.4374 64.8811 36.769 65.055L43.5439 68.6189Z" fill="#9A9A9A"/>
</g>
<path d="M43.5439 68.6189L37.3107 64.0368C36.9947 63.8046 36.7254 63.5133 36.5098 63.1831L40.4974 60.2517L36.1712 62.5271C36.0381 62.1852 35.954 61.8187 35.9283 61.4405L35.3866 53.2936L34.8448 61.4405C34.8199 61.8196 34.7351 62.1852 34.602 62.528L30.2758 60.2525L34.2634 63.184C34.047 63.5133 33.7785 63.8046 33.4625 64.0368L27.2292 68.6189L34.0042 65.055C34.3358 64.8811 34.6876 64.773 35.0457 64.7316L35.3866 69.8533L35.7275 64.7316C36.0848 64.7738 36.4374 64.8811 36.769 65.055L43.5439 68.6189Z" fill="#9A9A9A"/>
<g filter="url(#filter9_f_1437_120)">
<path d="M17.3145 42.4721L11.0812 37.89C10.7652 37.6578 10.4959 37.3665 10.2803 37.0364L14.2679 34.1049L9.9417 36.3804C9.8086 36.0384 9.72453 35.672 9.69884 35.2937L9.1571 27.1469L8.61535 35.2937C8.59044 35.6728 8.50559 36.0384 8.37249 36.3812L4.0463 34.1058L8.03391 37.0373C7.81752 37.3665 7.54898 37.6578 7.23296 37.89L0.999741 42.4721L7.7747 38.9083C8.10629 38.7343 8.45813 38.6263 8.81618 38.5849L9.1571 43.7065L9.49803 38.5849C9.85531 38.6271 10.2079 38.7343 10.5395 38.9083L17.3145 42.4721Z" fill="#9A9A9A"/>
</g>
<path d="M17.3145 42.4721L11.0812 37.89C10.7652 37.6578 10.4959 37.3665 10.2803 37.0364L14.2679 34.1049L9.9417 36.3804C9.8086 36.0384 9.72453 35.672 9.69884 35.2937L9.1571 27.1469L8.61535 35.2937C8.59044 35.6728 8.50559 36.0384 8.37249 36.3812L4.0463 34.1058L8.03391 37.0373C7.81752 37.3665 7.54898 37.6578 7.23296 37.89L0.999741 42.4721L7.7747 38.9083C8.10629 38.7343 8.45813 38.6263 8.81618 38.5849L9.1571 43.7065L9.49803 38.5849C9.85531 38.6271 10.2079 38.7343 10.5395 38.9083L17.3145 42.4721Z" fill="#9A9A9A"/>
<g filter="url(#filter10_f_1437_120)">
<path d="M43.5439 16.3252L37.3107 11.7431C36.9947 11.5109 36.7254 11.2196 36.5098 10.8894L40.4974 7.95796L36.1712 10.2334C36.0381 9.89146 35.954 9.52503 35.9283 9.14677L35.3866 0.999935L34.8448 9.14677C34.8199 9.52587 34.7351 9.89146 34.602 10.2343L30.2758 7.95881L34.2634 10.8903C34.047 11.2196 33.7785 11.5109 33.4625 11.7431L27.2292 16.3252L34.0042 12.7613C34.3358 12.5874 34.6876 12.4793 35.0457 12.4379L35.3866 17.5596L35.7275 12.4379C36.0848 12.4801 36.4374 12.5874 36.769 12.7613L43.5439 16.3252Z" fill="#9A9A9A"/>
</g>
<path d="M43.5439 16.3252L37.3107 11.7431C36.9947 11.5109 36.7254 11.2196 36.5098 10.8894L40.4974 7.95796L36.1712 10.2334C36.0381 9.89146 35.954 9.52503 35.9283 9.14677L35.3866 0.999935L34.8448 9.14677C34.8199 9.52587 34.7351 9.89146 34.602 10.2343L30.2758 7.95881L34.2634 10.8903C34.047 11.2196 33.7785 11.5109 33.4625 11.7431L27.2292 16.3252L34.0042 12.7613C34.3358 12.5874 34.6876 12.4793 35.0457 12.4379L35.3866 17.5596L35.7275 12.4379C36.0848 12.4801 36.4374 12.5874 36.769 12.7613L43.5439 16.3252Z" fill="#9A9A9A"/>
<g filter="url(#filter11_f_1437_120)">
<path d="M69.7705 16.3252L63.5373 11.7431C63.2213 11.5109 62.9519 11.2196 62.7363 10.8894L66.724 7.95796L62.3978 10.2334C62.2647 9.89146 62.1806 9.52503 62.1549 9.14677L61.6132 0.999935L61.0714 9.14677C61.0465 9.52587 60.9616 9.89146 60.8285 10.2343L56.5024 7.95881L60.49 10.8903C60.2736 11.2196 60.005 11.5109 59.689 11.7431L53.4558 16.3252L60.2308 12.7613C60.5623 12.5874 60.9142 12.4793 61.2722 12.4379L61.6132 17.5596L61.9541 12.4379C62.3114 12.4801 62.664 12.5874 62.9955 12.7613L69.7705 16.3252Z" fill="#9A9A9A"/>
</g>
<path d="M69.7705 16.3252L63.5373 11.7431C63.2213 11.5109 62.9519 11.2196 62.7363 10.8894L66.724 7.95796L62.3978 10.2334C62.2647 9.89146 62.1806 9.52503 62.1549 9.14677L61.6132 0.999935L61.0714 9.14677C61.0465 9.52587 60.9616 9.89146 60.8285 10.2343L56.5024 7.95881L60.49 10.8903C60.2736 11.2196 60.005 11.5109 59.689 11.7431L53.4558 16.3252L60.2308 12.7613C60.5623 12.5874 60.9142 12.4793 61.2722 12.4379L61.6132 17.5596L61.9541 12.4379C62.3114 12.4801 62.664 12.5874 62.9955 12.7613L69.7705 16.3252Z" fill="#9A9A9A"/>
<g filter="url(#filter12_f_1437_120)">
<path d="M96 42.4719L89.7668 37.8898C89.4508 37.6576 89.1814 37.3663 88.9658 37.0362L92.9535 34.1047L88.6273 36.3801C88.4941 36.0382 88.4101 35.6718 88.3844 35.2935L87.8426 27.1467L87.3009 35.2935C87.276 35.6726 87.1911 36.0382 87.058 36.381L82.7319 34.1055L86.7195 37.037C86.5031 37.3663 86.2345 37.6576 85.9185 37.8898L79.6853 42.4719L86.4603 38.908C86.7918 38.7341 87.1437 38.626 87.5017 38.5847L87.8426 43.7063L88.1836 38.5847C88.5409 38.6269 88.8934 38.7341 89.225 38.908L96 42.4719Z" fill="#9A9A9A"/>
</g>
<path d="M96 42.4719L89.7668 37.8898C89.4508 37.6576 89.1814 37.3663 88.9658 37.0362L92.9535 34.1047L88.6273 36.3801C88.4941 36.0382 88.4101 35.6718 88.3844 35.2935L87.8426 27.1467L87.3009 35.2935C87.276 35.6726 87.1911 36.0382 87.058 36.381L82.7319 34.1055L86.7195 37.037C86.5031 37.3663 86.2345 37.6576 85.9185 37.8898L79.6853 42.4719L86.4603 38.908C86.7918 38.7341 87.1437 38.626 87.5017 38.5847L87.8426 43.7063L88.1836 38.5847C88.5409 38.6269 88.8934 38.7341 89.225 38.908L96 42.4719Z" fill="#9A9A9A"/>
</g>
<defs>
<filter id="filter0_f_1437_120" x="26.2295" y="78.4404" width="18.3145" height="18.5596" filterUnits="userSpaceOnUse" color-interpolation-filters="sRGB">
<feFlood flood-opacity="0" result="BackgroundImageFix"/>
<feBlend mode="normal" in="SourceGraphic" in2="BackgroundImageFix" result="shape"/>
<feGaussianBlur stdDeviation="0.5" result="effect1_foregroundBlur_1437_120"/>
</filter>
<filter id="filter1_f_1437_120" x="26.2295" y="26.147" width="18.3145" height="18.5596" filterUnits="userSpaceOnUse" color-interpolation-filters="sRGB">
<feFlood flood-opacity="0" result="BackgroundImageFix"/>
<feBlend mode="normal" in="SourceGraphic" in2="BackgroundImageFix" result="shape"/>
<feGaussianBlur stdDeviation="0.5" result="effect1_foregroundBlur_1437_120"/>
</filter>
<filter id="filter2_f_1437_120" x="52.4561" y="52.2937" width="18.3145" height="18.5596" filterUnits="userSpaceOnUse" color-interpolation-filters="sRGB">
<feFlood flood-opacity="0" result="BackgroundImageFix"/>
<feBlend mode="normal" in="SourceGraphic" in2="BackgroundImageFix" result="shape"/>
<feGaussianBlur stdDeviation="0.5" result="effect1_foregroundBlur_1437_120"/>
</filter>
<filter id="filter3_f_1437_120" x="52.4561" y="26.147" width="18.3145" height="18.5596" filterUnits="userSpaceOnUse" color-interpolation-filters="sRGB">
<feFlood flood-opacity="0" result="BackgroundImageFix"/>
<feBlend mode="normal" in="SourceGraphic" in2="BackgroundImageFix" result="shape"/>
<feGaussianBlur stdDeviation="0.5" result="effect1_foregroundBlur_1437_120"/>
</filter>
<filter id="filter4_f_1437_120" x="0" y="0" width="18.3145" height="18.5596" filterUnits="userSpaceOnUse" color-interpolation-filters="sRGB">
<feFlood flood-opacity="0" result="BackgroundImageFix"/>
<feBlend mode="normal" in="SourceGraphic" in2="BackgroundImageFix" result="shape"/>
<feGaussianBlur stdDeviation="0.5" result="effect1_foregroundBlur_1437_120"/>
</filter>
<filter id="filter5_f_1437_120" x="78.6855" y="0" width="18.3145" height="18.5596" filterUnits="userSpaceOnUse" color-interpolation-filters="sRGB">
<feFlood flood-opacity="0" result="BackgroundImageFix"/>
<feBlend mode="normal" in="SourceGraphic" in2="BackgroundImageFix" result="shape"/>
<feGaussianBlur stdDeviation="0.5" result="effect1_foregroundBlur_1437_120"/>
</filter>
<filter id="filter6_f_1437_120" x="0" y="78.4404" width="18.3145" height="18.5596" filterUnits="userSpaceOnUse" color-interpolation-filters="sRGB">
<feFlood flood-opacity="0" result="BackgroundImageFix"/>
<feBlend mode="normal" in="SourceGraphic" in2="BackgroundImageFix" result="shape"/>
<feGaussianBlur stdDeviation="0.5" result="effect1_foregroundBlur_1437_120"/>
</filter>
<filter id="filter7_f_1437_120" x="0" y="52.2937" width="18.3145" height="18.5596" filterUnits="userSpaceOnUse" color-interpolation-filters="sRGB">
<feFlood flood-opacity="0" result="BackgroundImageFix"/>
<feBlend mode="normal" in="SourceGraphic" in2="BackgroundImageFix" result="shape"/>
<feGaussianBlur stdDeviation="0.5" result="effect1_foregroundBlur_1437_120"/>
</filter>
<filter id="filter8_f_1437_120" x="26.2295" y="52.2937" width="18.3145" height="18.5596" filterUnits="userSpaceOnUse" color-interpolation-filters="sRGB">
<feFlood flood-opacity="0" result="BackgroundImageFix"/>
<feBlend mode="normal" in="SourceGraphic" in2="BackgroundImageFix" result="shape"/>
<feGaussianBlur stdDeviation="0.5" result="effect1_foregroundBlur_1437_120"/>
</filter>
<filter id="filter9_f_1437_120" x="0" y="26.147" width="18.3145" height="18.5596" filterUnits="userSpaceOnUse" color-interpolation-filters="sRGB">
<feFlood flood-opacity="0" result="BackgroundImageFix"/>
<feBlend mode="normal" in="SourceGraphic" in2="BackgroundImageFix" result="shape"/>
<feGaussianBlur stdDeviation="0.5" result="effect1_foregroundBlur_1437_120"/>
</filter>
<filter id="filter10_f_1437_120" x="26.2295" y="0" width="18.3145" height="18.5596" filterUnits="userSpaceOnUse" color-interpolation-filters="sRGB">
<feFlood flood-opacity="0" result="BackgroundImageFix"/>
<feBlend mode="normal" in="SourceGraphic" in2="BackgroundImageFix" result="shape"/>
<feGaussianBlur stdDeviation="0.5" result="effect1_foregroundBlur_1437_120"/>
</filter>
<filter id="filter11_f_1437_120" x="52.4561" y="0" width="18.3145" height="18.5596" filterUnits="userSpaceOnUse" color-interpolation-filters="sRGB">
<feFlood flood-opacity="0" result="BackgroundImageFix"/>
<feBlend mode="normal" in="SourceGraphic" in2="BackgroundImageFix" result="shape"/>
<feGaussianBlur stdDeviation="0.5" result="effect1_foregroundBlur_1437_120"/>
</filter>
<filter id="filter12_f_1437_120" x="78.6855" y="26.1467" width="18.3145" height="18.5596" filterUnits="userSpaceOnUse" color-interpolation-filters="sRGB">
<feFlood flood-opacity="0" result="BackgroundImageFix"/>
<feBlend mode="normal" in="SourceGraphic" in2="BackgroundImageFix" result="shape"/>
<feGaussianBlur stdDeviation="0.5" result="effect1_foregroundBlur_1437_120"/>
</filter>
</defs>
</svg>
